<svg version="1" xmlns="http://www.w3.org/2000/svg" width="1557.333" height="1557.333" viewBox="0 0 1168.000000 1168.000000"><path d="M188.1 305c-15.8 4.2-13.1 1.8-103.3 92C11.5 470.2 2 480 2 482.7c0 3.6 2.6 6.2 7.2 7 4.7.9 333.1.8 340.3 0 12.7-1.5 27.1-9.2 36.8-19.7 2.6-2.8 4.7-4.9 4.7-4.6 0 .3 2-1.6 4.4-4.2 6.4-6.9 27.6-28 27.6-27.6 0 .2 1.5-1.3 3.4-3.3 1.9-2.1 28.2-28.6 58.5-58.8 30.4-30.3 55.8-56.2 56.7-57.7 2.1-4.1.9-7.6-3.3-9.3-3.1-1.3-26.4-1.5-173.2-1.4-164.4 0-169.8.1-177 1.9zM542.5 346.9c-3.6 2.2-507 505.7-507 507 0 .5-.3 1.3-.8 1.7-1.8 1.9-.6 5.5 2.6 7.4 3.2 2 5.7 2 250.4 2 276.4 0 251.9.7 259.6-7.2 2.1-2.1 3.5-3.8 3.1-3.8-.3 0-.2-.6.4-1.3.6-.6 1.4-3 1.8-5.2.4-2.2.7-114 .7-248.5 0-186.5-.3-245.4-1.2-248.1-.7-2.2-2.2-4.1-3.7-4.8-3.1-1.4-2.3-1.4-5.9.8zM939.7 555.6c-.2.2-2.5.6-5 .9-9.7.9-17.4 8.1-19.3 17.8-.3 1.7-.8 52.8-1.8 197.6-.2 36.5.3 39 7.8 39.1 2.4 0 19.2-16.4 123-120.1 66-66.1 120.9-121.3 121.8-122.8 1-1.4 1.8-4 1.8-5.8 0-5.3-3.4-6.3-19.5-6.3-4.9.1-9.7.1-10.5.1h-31.7c-1-.1-4 0-6.8 0H1070c-2.2.1-41.2 0-43.5 0-1.1-.1-4.2 0-7 0-2.7.1-5.4.1-6 .1-1-.1-36.7-.1-39.5-.1-.8 0-7 0-13.8-.1-6.8-.1-12.5 0-12.8.3-.3.2-2 .1-3.9-.3s-3.6-.6-3.8-.4zM628 601c-12.3.6-15.2 1.5-20.4 6.7-6.4 6.3-6-1.5-6.2 123.6 0 78.8.3 115.1 1 117.9.6 2.2 2.8 6 4.8 8.3 7 8-1 7.5 125.5 7.5 80 0 113.7-.3 116.9-1.1 5.6-1.4 12.6-7.9 14.5-13.4 1.1-3.3 1.3-25.1 1.3-117.5 0-124.2.3-118-6-125-6.8-7.5 0-7.1-116.1-7.3-57.1-.1-109 0-115.3.3zM1156.5 610.6c-2.9 1.3-238.6 236.4-241.8 241.4-1 1.3-1.7 3.7-1.7 5.3 0 2.3.7 3.1 3.8 4.5 3.5 1.6 12.6 1.7 118.2 1.6 106.1 0 114.8-.2 118.1-1.8 5.2-2.4 9.7-7.5 11.7-13.2 1.7-4.6 1.8-12 1.7-118.5 0-105.9-.2-113.7-1.8-116.2-2.5-3.8-4.7-4.6-8.2-3.1z"/></svg>