<?xml version="1.0" encoding="utf-8"?>
<!-- Generator: Adobe Illustrator 18.1.1, SVG Export Plug-In . SVG Version: 6.00 Build 0)  -->
<svg version="1.1" id="Capa_1" xmlns="http://www.w3.org/2000/svg" xmlns:xlink="http://www.w3.org/1999/xlink" x="0px" y="0px"
	 viewBox="-108.2 354 72.9 35.1" enable-background="new -108.2 354 72.9 35.1" xml:space="preserve">
<path d="M-51.2,385c0,0.8,0.5,1,1,0.4l14.6-14.6c0.6-0.6,0.4-1-0.4-1h-13.7c-0.8,0-1.4,0.6-1.4,1.4L-51.2,385L-51.2,385z"/>
<path d="M-98.1,355c0.6-0.6,1.6-1,2.4-1h20.6c0.8,0,1,0.5,0.4,1l-9.7,9.7c-0.6,0.6-1.6,1-2.4,1h-20.6c-0.8,0-1-0.5-0.4-1L-98.1,355z
	"/>
<path d="M-105.8,388.1c-0.6,0.6-0.4,1,0.4,1h30.3c0.8,0,1.4-0.6,1.4-1.4v-30.3c0-0.8-0.5-1-1-0.4L-105.8,388.1z"/>
<path d="M-54.2,374c0-0.8-0.6-1.4-1.4-1.4h-13.7c-0.8,0-1.4,0.6-1.4,1.4v13.7c0,0.8,0.6,1.4,1.4,1.4h13.7c0.8,0,1.4-0.6,1.4-1.4V374
	z"/>
<path d="M-50.9,388c-0.6,0.6-0.4,1,0.4,1h13.7c0.8,0,1.4-0.6,1.4-1.4v-13.7c0-0.8-0.5-1-1-0.4L-50.9,388z"/>
</svg>
