<?xml version="1.0" encoding="utf-8"?>
<!-- Generator: Adobe Illustrator 18.1.1, SVG Export Plug-In . SVG Version: 6.00 Build 0)  -->
<svg version="1.1" id="Capa_1" xmlns="http://www.w3.org/2000/svg" xmlns:xlink="http://www.w3.org/1999/xlink" x="0px" y="0px"
	 viewBox="-206 354 170.7 35.7" enable-background="new -206 354 170.7 35.7" xml:space="preserve">
<path fill="#EF6D4B" d="M-51.2,385c0,0.8,0.5,1,1,0.4l14.6-14.6c0.6-0.6,0.4-1-0.4-1h-13.7c-0.8,0-1.4,0.6-1.4,1.4L-51.2,385
	L-51.2,385z"/>
<path fill="#EF6D4B" d="M-98.1,355c0.6-0.6,1.6-1,2.4-1h20.6c0.8,0,1,0.5,0.4,1l-9.7,9.7c-0.6,0.6-1.6,1-2.4,1h-20.6
	c-0.8,0-1-0.5-0.4-1L-98.1,355z"/>
<path fill="#EF6D4B" d="M-105.8,388.1c-0.6,0.6-0.4,1,0.4,1h30.3c0.8,0,1.4-0.6,1.4-1.4v-30.3c0-0.8-0.5-1-1-0.4L-105.8,388.1z"/>
<path fill="#EF6D4B" d="M-54.2,374c0-0.8-0.6-1.4-1.4-1.4h-13.7c-0.8,0-1.4,0.6-1.4,1.4v13.7c0,0.8,0.6,1.4,1.4,1.4h13.7
	c0.8,0,1.4-0.6,1.4-1.4V374z"/>
<path fill="#EF6D4B" d="M-50.9,388c-0.6,0.6-0.4,1,0.4,1h13.7c0.8,0,1.4-0.6,1.4-1.4v-13.7c0-0.8-0.5-1-1-0.4L-50.9,388z"/>
<path fill="#1B688D" d="M-193.2,385.4c-0.3,1.7,0,2.5,0.7,2.5c0.6,0,1.6-0.8,2.9-2c0.2-0.2,0.5,0.1,0.3,0.3
	c-1.9,2.1-3.2,3.2-4.7,3.2c-1.3,0-1.6-1-1-4.1l0.8-4.4c-2.4,5.1-5.4,8.6-8.6,8.6c-2,0-3.9-1.5-3.2-5.8c1.1-6.1,6.2-11.3,11.1-11.3
	c0.7,0,1.5,0.2,2.1,0.7l1.9-10.1c0.3-1.8-0.4-2.4-3-1.1c-0.2,0.1-0.4-0.4-0.2-0.5l5.1-2.5c0.2-0.1,0.5,0.2,0.4,0.3L-193.2,385.4z
	 M-193.5,377.4c0.4-2.2-0.6-3.5-2.6-3.5c-3.7,0.1-6.9,3-7.9,8.5c-0.6,3.7,0.5,5.5,2.4,5.5C-197.7,387.9-194.1,380.9-193.5,377.4z"/>
<path fill="#1B688D" d="M-187.3,385.4l1.7-8.6c0.3-1.7,0-2.5-0.7-2.5c-0.7,0-1.8,0.7-3,2c-0.2,0.2-0.5-0.2-0.3-0.3
	c1.9-2.1,3.4-3.2,4.7-3.2c1.3,0,1.6,1,1,4.1l-1.7,8.6c-0.3,1.7,0,2.5,0.7,2.5c0.6,0,1.7-0.7,2.9-2c0.2-0.2,0.5,0.2,0.3,0.3
	c-1.8,2.1-3.3,3.2-4.7,3.2C-187.4,389.5-187.9,388.6-187.3,385.4z M-185.3,366c0-1,0.6-1.5,1.7-1.5c1,0,1.6,0.6,1.6,1.5
	c0,1-0.6,1.6-1.6,1.6S-185.3,367.1-185.3,366z"/>
<path fill="#1B688D" d="M-181.5,387.1c0.1-0.7,0.6-1,1.1-1c1.2,0,0.8,2.7,3.6,2.7c1.6,0,2.7-0.9,2.9-2.7c0.7-4.3-6.1-5-5.2-9.3
	c0.5-2.7,3.1-4,5.4-4c1.8,0,3.3,0.9,3.2,2c-0.1,0.7-0.7,1-1.1,1c-1.3,0-1.3-2.1-3.5-2.1c-1.1,0-2.1,0.5-2.3,1.7
	c-0.7,4.1,6,5.2,5.3,9.6c-0.4,2.5-2.8,4.7-5.7,4.7C-179.9,389.6-181.8,388.5-181.5,387.1z"/>
<path fill="#1B688D" d="M-170.2,380.7c1.1-5.3,5.3-8.2,8.8-8.2c2,0,3.7,1,3.5,2.4c0,0.6-0.4,1.2-1.2,1.2c-0.6,0-1.1-0.4-1.4-1.2
	c-0.2-0.6-0.8-1.5-2.3-1.5c-3,0-4.6,2.8-5.2,6.1c-0.9,4.6,0.3,8.9,4.3,8.9c2,0,3.4-1,4.6-2c0.2-0.1,0.5,0.2,0.3,0.4
	c-2.3,2-4.4,2.9-6.5,2.9C-169.9,389.7-171,384.8-170.2,380.7z"/>
<path fill="#1B688D" d="M-144.8,374.9c-0.2,0.7-0.6,1-1.2,1c-1.2,0-1.1-1.4-2-1.4c-2,0-5.5,9.4-6.5,14.4c0,0.3-0.4,0.6-1,0.6
	c-0.7,0-0.8-0.1-0.8-0.2s0.4-1.9,0.6-3.2l1.3-7.3c0.7-3.8-0.1-4.5-0.8-4.5c-0.8,0-1.8,0.8-2.5,1.5c-0.1,0.1-0.5-0.2-0.3-0.3
	c1.5-1.7,2.9-2.7,4.3-2.7c1.4,0,2,1.2,1.1,6.1l-0.9,4.7c1.7-5.3,4.4-10.8,6.6-10.8C-145.8,372.7-144.5,373.7-144.8,374.9z"/>
<path fill="#1B688D" d="M-144.1,380.1c-0.9,4.7,0.6,8.1,4.2,8.1c1.4,0,2.9-0.3,4.3-1.4c0.2-0.1,0.5,0.2,0.3,0.4
	c-2.1,1.7-4,2.3-5.9,2.3c-4.3,0-5.9-3.8-5-8.2c0.7-4.1,4.7-8.9,9.3-8.9c2,0,2.9,0.9,2.7,2.2C-134.9,377.2-139.2,379.4-144.1,380.1z
	 M-144,379.6c3.9-0.6,6.6-2,7.2-3.9c0.5-1.5-0.8-2-2-2C-141.7,373.7-143.4,376.4-144,379.6z"/>
<path fill="#1B688D" d="M-123.8,373.6c-0.1,0.5-0.8,1.3-1.3,1.3c-0.2,0-2.6-0.4-4.5-0.4l-1.9,10.4c-0.5,2.3,0.1,3.4,1.9,3.4
	c1.7,0,3-1,4.2-2c0.1-0.1,0.5,0.2,0.3,0.3c-2.5,2.2-4.2,3-5.9,3c-1.5,0-3-0.8-2.6-3.3l1.8-9.9c0.4-2.1,0.2-2.3-1.4-2.3
	c-0.2,0-0.1-0.5,0-0.5c1.8,0,3.2-1.3,3.5-3.1c0-0.2,0.7-0.2,0.7,0l-0.5,3c2,0,4.9-0.3,5.4-0.3C-123.8,373.3-123.7,373.4-123.8,373.6
	z"/>
<path fill="#1B688D" d="M-122.4,380.1c-0.9,4.7,0.6,8.1,4.2,8.1c1.4,0,2.9-0.3,4.3-1.4c0.2-0.1,0.5,0.2,0.3,0.4
	c-2.1,1.7-4,2.3-5.9,2.3c-4.3,0-5.9-3.8-5-8.2c0.7-4.1,4.7-8.9,9.3-8.9c2,0,2.9,0.9,2.7,2.2C-113.2,377.2-117.5,379.4-122.4,380.1z
	 M-122.3,379.6c3.9-0.6,6.6-2,7.2-3.9c0.5-1.5-0.8-2-2-2C-120,373.7-121.7,376.4-122.3,379.6z"/>
</svg>
